<?xml version="1.0" encoding="UTF-8"?>
<!DOCTYPE svg PUBLIC "-//W3C//DTD SVG 1.1//EN" "http://www.w3.org/Graphics/SVG/1.1/DTD/svg11.dtd">
<svg xmlns="http://www.w3.org/2000/svg" version="1.1" width="1000px" height="1000px" style="shape-rendering:geometricPrecision; text-rendering:geometricPrecision; image-rendering:optimizeQuality; fill-rule:evenodd; clip-rule:evenodd" xmlns:xlink="http://www.w3.org/1999/xlink">
<g><path style="opacity:1" fill="#eeeff0" d="M -0.5,-0.5 C 332.833,-0.5 666.167,-0.5 999.5,-0.5C 999.5,332.833 999.5,666.167 999.5,999.5C 666.167,999.5 332.833,999.5 -0.5,999.5C -0.5,666.167 -0.5,332.833 -0.5,-0.5 Z"/></g>
<g><path style="opacity:1" fill="#6a656e" d="M 382.5,227.5 C 387.511,227.334 392.511,227.501 397.5,228C 352.667,299.5 307.833,371 263,442.5C 262.51,441.207 262.343,439.873 262.5,438.5C 263.499,432.504 264.499,426.504 265.5,420.5C 266.404,419.791 266.737,418.791 266.5,417.5C 259.5,417.5 252.5,417.5 245.5,417.5C 283.942,355.884 322.609,294.384 361.5,233C 360.906,232.536 360.239,232.369 359.5,232.5C 366.737,229.45 374.403,227.784 382.5,227.5 Z"/></g>
<g><path style="opacity:1" fill="#6c6972" d="M 382.5,227.5 C 395.732,226.271 409.066,226.605 422.5,228.5C 365.903,320.042 308.57,411.042 250.5,501.5C 254.011,480.286 258.011,459.286 262.5,438.5C 262.343,439.873 262.51,441.207 263,442.5C 307.833,371 352.667,299.5 397.5,228C 392.511,227.501 387.511,227.334 382.5,227.5 Z"/></g>
<g><path style="opacity:1" fill="#6e6c75" d="M 422.5,228.5 C 434.726,229.445 446.726,231.612 458.5,235C 459.022,235.561 459.355,236.228 459.5,237C 452.132,260.272 444.465,283.438 436.5,306.5C 422.559,301.014 408.226,299.514 393.5,302C 383.213,305.287 375.713,311.787 371,321.5C 367.103,330.087 364.937,339.087 364.5,348.5C 366.607,349.468 368.941,349.802 371.5,349.5C 327.939,419.612 284.105,489.612 240,559.5C 239.517,558.552 239.351,557.552 239.5,556.5C 242.292,537.871 245.959,519.538 250.5,501.5C 308.57,411.042 365.903,320.042 422.5,228.5 Z"/></g>
<g><path style="opacity:1" fill="#68626b" d="M 359.5,232.5 C 360.239,232.369 360.906,232.536 361.5,233C 322.609,294.384 283.942,355.884 245.5,417.5C 237.5,417.5 229.5,417.5 221.5,417.5C 225.242,394.458 229.242,371.458 233.5,348.5C 248.833,348.5 264.167,348.5 279.5,348.5C 283.282,313.954 296.448,283.621 319,257.5C 330.59,246.077 344.09,237.744 359.5,232.5 Z"/></g>
<g><path style="opacity:1" fill="#b1bac0" d="M 779.5,233.5 C 808.336,232.17 837.336,232.17 866.5,233.5C 866.376,234.107 866.043,234.44 865.5,234.5C 857.35,233.507 849.017,233.174 840.5,233.5C 820.167,233.5 799.833,233.5 779.5,233.5 Z"/></g>
<g><path style="opacity:1" fill="#8c9aa3" d="M 779.5,233.5 C 799.833,233.5 820.167,233.5 840.5,233.5C 824.5,259.5 808.5,285.5 792.5,311.5C 782.833,311.5 773.167,311.5 763.5,311.5C 768.216,285.251 773.549,259.251 779.5,233.5 Z"/></g>
<g><path style="opacity:1" fill="#8f9ea7" d="M 840.5,233.5 C 849.017,233.174 857.35,233.507 865.5,234.5C 860.372,260.141 855.372,285.808 850.5,311.5C 831.167,311.5 811.833,311.5 792.5,311.5C 808.5,285.5 824.5,259.5 840.5,233.5 Z"/></g>
<g><path style="opacity:1" fill="#848e97" d="M 663.5,340.5 C 645.986,368.195 628.986,396.195 612.5,424.5C 594.434,429.532 579.767,439.532 568.5,454.5C 589.976,418.166 612.142,382.166 635,346.5C 637.498,343.899 636.998,342.565 633.5,342.5C 634.609,341.71 635.942,341.21 637.5,341C 646.16,340.5 654.827,340.334 663.5,340.5 Z"/></g>
<g><path style="opacity:1" fill="#86919a" d="M 663.5,340.5 C 673.949,341.055 683.949,343.389 693.5,347.5C 678.319,372.541 662.652,397.208 646.5,421.5C 638.493,421.334 630.493,421.5 622.5,422C 619.053,422.529 615.719,423.362 612.5,424.5C 628.986,396.195 645.986,368.195 663.5,340.5 Z"/></g>
<g><path style="opacity:1" fill="#828b94" d="M 633.5,342.5 C 636.998,342.565 637.498,343.899 635,346.5C 612.142,382.166 589.976,418.166 568.5,454.5C 565.153,459.869 561.819,465.203 558.5,470.5C 557.624,470.369 556.957,470.702 556.5,471.5C 519.14,531.184 481.807,590.851 444.5,650.5C 440.167,650.5 435.833,650.5 431.5,650.5C 432.955,639.94 434.955,629.607 437.5,619.5C 493.082,531.965 548.749,443.798 604.5,355C 604.272,354.601 603.938,354.435 603.5,354.5C 612.294,347.779 622.294,343.779 633.5,342.5 Z"/></g>
<g><path style="opacity:1" fill="#a8acb2" d="M 488.5,349.5 C 515.662,348.502 542.995,348.169 570.5,348.5C 570.737,349.791 570.404,350.791 569.5,351.5C 565.971,349.577 561.971,348.911 557.5,349.5C 549.167,349.5 540.833,349.5 532.5,349.5C 517.833,349.5 503.167,349.5 488.5,349.5 Z"/></g>
<g><path style="opacity:1" fill="#89959e" d="M 693.5,347.5 C 697.707,349.435 701.373,352.102 704.5,355.5C 695.371,380.721 686.537,406.054 678,431.5C 677.586,431.957 677.086,432.291 676.5,432.5C 666.959,427.212 656.959,423.546 646.5,421.5C 662.652,397.208 678.319,372.541 693.5,347.5 Z"/></g>
<g><path style="opacity:1" fill="#b4bfc5" d="M 756.5,349.5 C 785.329,348.502 814.329,348.169 843.5,348.5C 843.737,349.791 843.404,350.791 842.5,351.5C 834.903,349.533 826.903,348.866 818.5,349.5C 797.833,349.5 777.167,349.5 756.5,349.5 Z"/></g>
<g><path style="opacity:1" fill="#6f6e77" d="M 371.5,349.5 C 377.167,349.5 382.833,349.5 388.5,349.5C 336.162,432.683 283.995,516.016 232,599.5C 231.536,598.906 231.369,598.239 231.5,597.5C 233.807,583.642 236.474,569.975 239.5,556.5C 239.351,557.552 239.517,558.552 240,559.5C 284.105,489.612 327.939,419.612 371.5,349.5 Z"/></g>
<g><path style="opacity:1" fill="#787881" d="M 364.5,348.5 C 385.844,348.167 407.177,348.5 428.5,349.5C 424.196,372.125 420.029,394.792 416,417.5C 394.575,418.494 373.075,418.827 351.5,418.5C 360.991,417.67 370.658,417.17 380.5,417C 394.5,394.667 408.5,372.333 422.5,350C 411.172,349.5 399.838,349.333 388.5,349.5C 382.833,349.5 377.167,349.5 371.5,349.5C 368.941,349.802 366.607,349.468 364.5,348.5 Z"/></g>
<g><path style="opacity:1" fill="#7b7f88" d="M 488.5,349.5 C 503.167,349.5 517.833,349.5 532.5,349.5C 512.224,382.282 491.724,414.949 471,447.5C 470.536,446.906 470.369,446.239 470.5,445.5C 475.677,413.228 481.677,381.228 488.5,349.5 Z"/></g>
<g><path style="opacity:1" fill="#7c828b" d="M 532.5,349.5 C 540.833,349.5 549.167,349.5 557.5,349.5C 525.225,401.615 492.725,453.615 460,505.5C 459.536,504.906 459.369,504.239 459.5,503.5C 462.164,483.853 465.831,464.52 470.5,445.5C 470.369,446.239 470.536,446.906 471,447.5C 491.724,414.949 512.224,382.282 532.5,349.5 Z"/></g>
<g><path style="opacity:1" fill="#7e858e" d="M 557.5,349.5 C 561.971,348.911 565.971,349.577 569.5,351.5C 568.136,361.655 566.136,371.655 563.5,381.5C 525.108,441.934 486.941,502.6 449,563.5C 448.536,562.906 448.369,562.239 448.5,561.5C 451.164,541.853 454.831,522.52 459.5,503.5C 459.369,504.239 459.536,504.906 460,505.5C 492.725,453.615 525.225,401.615 557.5,349.5 Z"/></g>
<g><path style="opacity:1" fill="#90a0a9" d="M 756.5,349.5 C 777.167,349.5 797.833,349.5 818.5,349.5C 789.558,396.282 760.391,442.949 731,489.5C 730.51,488.207 730.343,486.873 730.5,485.5C 738.549,439.926 747.216,394.593 756.5,349.5 Z"/></g>
<g><path style="opacity:1" fill="#92a4ad" d="M 818.5,349.5 C 826.903,348.866 834.903,349.533 842.5,351.5C 842.737,352.791 842.404,353.791 841.5,354.5C 800.863,418.66 760.363,482.993 720,547.5C 719.517,546.552 719.351,545.552 719.5,544.5C 722.529,524.59 726.196,504.924 730.5,485.5C 730.343,486.873 730.51,488.207 731,489.5C 760.391,442.949 789.558,396.282 818.5,349.5 Z"/></g>
<g><path style="opacity:1" fill="#808891" d="M 603.5,354.5 C 603.938,354.435 604.272,354.601 604.5,355C 548.749,443.798 493.082,531.965 437.5,619.5C 440.164,599.853 443.831,580.52 448.5,561.5C 448.369,562.239 448.536,562.906 449,563.5C 486.941,502.6 525.108,441.934 563.5,381.5C 562.491,387.851 561.658,394.184 561,400.5C 571.546,381.789 585.712,366.456 603.5,354.5 Z"/></g>
<g><path style="opacity:1" fill="#95a7b0" d="M 841.5,354.5 C 822.909,453.121 804.576,551.787 786.5,650.5C 757.5,650.5 728.5,650.5 699.5,650.5C 705.158,614.861 711.824,579.527 719.5,544.5C 719.351,545.552 719.517,546.552 720,547.5C 760.363,482.993 800.863,418.66 841.5,354.5 Z"/></g>
<g><path style="opacity:1" fill="#a09ea3" d="M 221.5,417.5 C 229.5,417.5 237.5,417.5 245.5,417.5C 252.5,417.5 259.5,417.5 266.5,417.5C 266.737,418.791 266.404,419.791 265.5,420.5C 251.028,418.839 236.362,417.839 221.5,417.5 Z"/></g>
<g><path style="opacity:1" fill="#72717a" d="M 388.5,349.5 C 399.838,349.333 411.172,349.5 422.5,350C 408.5,372.333 394.5,394.667 380.5,417C 370.658,417.17 360.991,417.67 351.5,418.5C 346.659,441.04 342.326,463.707 338.5,486.5C 336.376,487.031 334.876,488.365 334,490.5C 275.958,583.417 217.792,676.251 159.5,769C 157.527,769.495 155.527,769.662 153.5,769.5C 146.995,768.79 140.661,767.29 134.5,765C 133.941,764.275 133.608,763.442 133.5,762.5C 140.944,738.952 148.944,715.619 157.5,692.5C 184.237,701.209 203.404,692.875 215,667.5C 216.867,662.898 218.534,658.232 220,653.5C 223.923,634.715 227.756,616.049 231.5,597.5C 231.369,598.239 231.536,598.906 232,599.5C 283.995,516.016 336.162,432.683 388.5,349.5 Z"/></g>
<g><path style="opacity:1" fill="#74757e" d="M 338.5,486.5 C 334.367,505.834 330.367,525.167 326.5,544.5C 278.775,619.6 231.275,694.934 184,770.5C 178.928,771.471 173.762,771.805 168.5,771.5C 163.32,771.153 158.32,770.487 153.5,769.5C 155.527,769.662 157.527,769.495 159.5,769C 217.792,676.251 275.958,583.417 334,490.5C 334.876,488.365 336.376,487.031 338.5,486.5 Z"/></g>
<g><path style="opacity:1" fill="#848e97" d="M 558.5,470.5 C 548.048,493.743 541.381,518.077 538.5,543.5C 536.376,544.031 534.876,545.365 534,547.5C 512.489,581.861 490.989,616.195 469.5,650.5C 461.167,650.5 452.833,650.5 444.5,650.5C 481.807,590.851 519.14,531.184 556.5,471.5C 556.957,470.702 557.624,470.369 558.5,470.5 Z"/></g>
<g><path style="opacity:1" fill="#86919a" d="M 538.5,543.5 C 531.092,579.023 524.425,614.689 518.5,650.5C 502.167,650.5 485.833,650.5 469.5,650.5C 490.989,616.195 512.489,581.861 534,547.5C 534.876,545.365 536.376,544.031 538.5,543.5 Z"/></g>
<g><path style="opacity:1" fill="#767881" d="M 326.5,544.5 C 322.265,570.675 317.265,596.675 311.5,622.5C 281.264,669.962 251.264,717.629 221.5,765.5C 218.802,767.172 215.802,768.339 212.5,769C 197.817,772.37 183.151,773.203 168.5,771.5C 173.762,771.805 178.928,771.471 184,770.5C 231.275,694.934 278.775,619.6 326.5,544.5 Z"/></g>
<g><path style="opacity:1" fill="#797c85" d="M 311.5,622.5 C 308.244,641.944 304.411,661.278 300,680.5C 289.437,718.721 266.27,746.221 230.5,763C 227.568,764.145 224.568,764.978 221.5,765.5C 251.264,717.629 281.264,669.962 311.5,622.5 Z"/></g>
</svg>
